<svg width="759" height="80" viewBox="0 0 759 80" fill="none" xmlns="http://www.w3.org/2000/svg">
<path d="M35.66 64.94C56.81 64.94 69.5 54.882 69.5 38.056V36.458H49.76V38.056C49.76 45.2 46.376 48.02 35.942 48.02C23.158 48.02 19.68 45.012 19.68 32.51C19.68 20.008 23.158 17 35.942 17C46.376 17 49.76 19.82 49.76 26.964V28.562H69.5V26.964C69.5 10.138 56.81 0.0799993 35.66 0.0799993C13.758 0.0799993 0.88 12.864 0.88 32.51C0.88 52.156 13.758 64.94 35.66 64.94ZM91.8279 64V35.706C91.8279 31.946 93.2379 30.536 98.0319 30.536C102.638 30.536 104.142 31.946 104.142 35.894V41.44H121.814V32.04C121.814 22.546 117.678 15.684 107.244 15.684C97.8439 15.684 92.9559 21.23 91.6399 29.032H90.6999V16.624H74.1559V64H91.8279ZM135.996 79.98C149.814 79.98 157.052 77.066 162.128 65.88L184.594 16.624H164.854L157.804 35.048L154.702 46.14H153.48L150.096 35.236L141.918 16.624H121.802L144.456 63.436C143.704 63.812 142.576 64 141.166 64H127.442V79.98H135.996ZM204.187 79.98V51.78H205.127C206.537 59.676 211.801 64.94 222.987 64.94C236.899 64.94 244.701 55.728 244.701 40.312C244.701 24.99 236.711 15.684 222.235 15.684C211.143 15.684 205.503 20.008 203.999 29.408H203.059V16.624H186.515V79.98H204.187ZM204.187 40.876V40.218C204.187 33.356 207.947 31.852 215.843 31.852C224.021 31.852 226.841 34.014 226.841 40.312C226.841 46.61 224.021 48.866 215.843 48.866C207.947 48.866 204.187 47.55 204.187 40.876ZM284.834 64V48.114H276.374C272.332 48.114 271.204 47.174 271.204 43.414V31.1H284.834V16.624H271.204V8.446H253.532V16.624H246.576V31.1H253.532V45.952C253.532 58.266 260.582 64 272.426 64H284.834ZM315.278 64.94C331.728 64.94 342.914 55.634 342.914 40.312C342.914 24.896 331.728 15.684 315.278 15.684C298.828 15.684 287.642 24.896 287.642 40.312C287.642 55.634 298.828 64.94 315.278 64.94ZM315.278 49.336C307.288 49.336 305.126 47.174 305.126 40.312C305.126 33.45 307.288 31.194 315.278 31.194C323.268 31.194 325.43 33.45 325.43 40.312C325.43 47.174 323.268 49.336 315.278 49.336ZM416.217 64V48.114H377.959V40.218H414.807V24.426H377.959V16.906H416.217V1.02H360.287V64H416.217ZM438.818 64L448.124 50.088H449.064L458.746 64H480.366L462.694 40.782V39.842L480.366 16.624H459.028L449.722 30.912H448.782L439.1 16.624H417.48L435.152 40.124V41.064L417.48 64H438.818ZM499.957 79.98V51.78H500.897C502.307 59.676 507.571 64.94 518.757 64.94C532.669 64.94 540.471 55.728 540.471 40.312C540.471 24.99 532.481 15.684 518.005 15.684C506.913 15.684 501.273 20.008 499.769 29.408H498.829V16.624H482.285V79.98H499.957ZM499.957 40.876V40.218C499.957 33.356 503.717 31.852 511.613 31.852C519.791 31.852 522.611 34.014 522.611 40.312C522.611 46.61 519.791 48.866 511.613 48.866C503.717 48.866 499.957 47.55 499.957 40.876ZM562.838 64V35.706C562.838 31.946 564.248 30.536 569.042 30.536C573.648 30.536 575.152 31.946 575.152 35.894V41.44H592.824V32.04C592.824 22.546 588.688 15.684 578.254 15.684C568.854 15.684 563.966 21.23 562.65 29.032H561.71V16.624H545.166V64H562.838ZM622.986 64.94C638.966 64.94 649.024 57.514 649.024 46.986V45.858H631.352V46.892C631.352 49.712 629.472 50.934 622.328 50.934C614.808 50.934 612.27 49.336 611.988 43.602H649.118C649.306 41.91 649.4 40.688 649.4 39.09C649.4 23.862 638.966 15.684 622.61 15.684C606.818 15.684 595.632 24.896 595.632 40.312C595.632 58.078 606.912 64.94 622.986 64.94ZM622.234 29.22C628.814 29.22 631.634 30.63 632.292 34.672H612.27C613.022 30.63 615.748 29.22 622.234 29.22ZM679.603 64.94C695.301 64.94 704.137 58.548 704.137 49.712C704.137 41.722 699.719 37.116 685.901 35.612L676.501 34.578C670.955 34.014 670.203 33.356 670.203 32.04C670.203 30.254 670.955 29.502 676.689 29.502C683.833 29.502 684.773 30.63 684.773 33.074V33.638H702.445V33.262C702.445 21.606 693.703 15.684 677.253 15.684C659.487 15.684 652.813 22.922 652.813 31.288C652.813 39.278 658.077 43.884 667.853 44.918L681.577 46.422C685.995 46.892 686.747 47.268 686.747 48.772C686.747 50.37 685.807 51.028 679.697 51.028C673.305 51.028 671.613 50.746 671.613 48.114V47.174H653.941V47.55C653.941 58.454 662.871 64.94 679.603 64.94ZM733.855 64.94C749.553 64.94 758.389 58.548 758.389 49.712C758.389 41.722 753.971 37.116 740.153 35.612L730.753 34.578C725.207 34.014 724.455 33.356 724.455 32.04C724.455 30.254 725.207 29.502 730.941 29.502C738.085 29.502 739.025 30.63 739.025 33.074V33.638H756.697V33.262C756.697 21.606 747.955 15.684 731.505 15.684C713.739 15.684 707.065 22.922 707.065 31.288C707.065 39.278 712.329 43.884 722.105 44.918L735.829 46.422C740.247 46.892 740.999 47.268 740.999 48.772C740.999 50.37 740.059 51.028 733.949 51.028C727.557 51.028 725.865 50.746 725.865 48.114V47.174H708.193V47.55C708.193 58.454 717.123 64.94 733.855 64.94Z" fill="url(#paint0_linear_860_5606)"/>
<defs>
<linearGradient id="paint0_linear_860_5606" x1="536.6" y1="-25.84" x2="535.479" y2="67.5606" gradientUnits="userSpaceOnUse">
<stop stop-color="#00BFF2"/>
<stop offset="1" stop-color="#8238D7"/>
</linearGradient>
</defs>
</svg>
